ply
format ascii 1.0
element vertex 180
property float x
property float y
property float z
element face 368
property list uchar int vertex_indices
end_header
-0.012641 -0.019734 -0.033083
-0.012670 -0.019704 -0.033083
-0.012670 -0.019700 -0.033088
-0.006783 -0.019700 -0.038975
-0.006778 -0.019734 -0.038946
-0.006778 -0.019704 -0.038975
0.001538 0.019705 -0.038975
-0.012670 -0.019704 -0.009194
-0.012641 -0.019734 -0.009194
-0.012670 -0.019700 -0.009189
-0.007926 -0.019700 -0.004444
-0.007921 -0.019734 -0.004474
-0.007921 -0.019704 -0.004444
-0.012670 0.019700 -0.033088
-0.006783 0.019700 -0.038975
-0.012670 0.019700 -0.009189
-0.012670 0.019704 -0.033083
-0.007921 0.019734 -0.004474
-0.012670 0.019704 -0.009194
-0.007926 0.019700 -0.004444
-0.012641 0.019734 -0.033083
-0.006778 0.019705 -0.038975
-0.006778 0.019734 -0.038946
-0.012641 0.019734 -0.009194
-0.007921 0.019705 -0.004444
0.001538 -0.019734 -0.038946
0.001538 -0.019704 -0.038975
0.007476 -0.019704 -0.033038
0.000003 -0.019734 -0.004474
0.007446 -0.019734 -0.033038
0.007446 -0.019734 -0.011916
0.000003 -0.019704 -0.004444
0.001543 -0.019700 -0.038975
0.001543 0.019700 -0.038975
0.000003 0.019705 -0.004444
0.000008 -0.019700 -0.004444
0.000008 0.019700 -0.004444
0.001538 0.019734 -0.038946
0.000003 0.019734 -0.004474
0.007446 0.019734 -0.033038
0.007446 0.019734 -0.011916
0.007476 -0.019700 -0.033042
0.007476 -0.019704 -0.011916
0.007476 -0.019700 -0.011912
0.007476 0.019700 -0.033042
0.007476 0.019700 -0.011912
0.007476 0.019704 -0.033038
0.007476 0.019704 -0.011916
-0.012641 -0.019734 -0.031555
-0.012670 -0.019704 -0.031555
-0.012670 -0.019700 -0.031559
-0.012641 -0.019700 -0.031589
-0.012636 -0.019734 -0.031559
-0.012636 -0.019704 -0.031589
-0.012670 -0.019704 0.018823
-0.012641 -0.019734 0.018823
-0.012670 -0.018322 0.020206
-0.008625 -0.018322 0.024251
-0.008295 -0.019734 0.023169
-0.008295 -0.018652 0.024251
-0.008060 0.018754 0.024251
-0.012670 0.019700 -0.031559
-0.012641 0.019700 -0.031589
-0.012670 0.018190 0.020206
-0.012670 0.019704 -0.031555
-0.012670 0.019704 0.018691
-0.008625 0.018190 0.024251
-0.012641 0.019734 -0.031555
-0.012636 0.019705 -0.031589
0.007396 0.019734 -0.031559
-0.012636 0.019734 -0.031559
-0.012641 0.019734 0.018691
-0.008060 0.019734 0.023271
0.007396 -0.019734 -0.031559
0.007396 -0.019704 -0.031589
0.012670 -0.019704 -0.026315
-0.007078 -0.019734 0.023169
0.012641 -0.019734 -0.026315
0.012641 -0.019734 0.003451
-0.007083 -0.018652 0.024251
-0.007078 -0.018657 0.024246
0.007396 0.019705 -0.031589
0.007401 -0.019700 -0.031589
0.007401 0.019700 -0.031589
-0.007180 0.018754 0.024251
-0.007083 0.018657 0.024251
-0.007180 0.019734 0.023271
0.012641 0.019734 -0.026315
0.012641 0.019734 0.003451
0.012670 -0.019700 -0.026319
0.012670 -0.019704 0.003451
0.012670 -0.018657 0.004498
0.012670 0.019700 -0.026319
0.012670 0.018657 0.004498
0.012670 0.019704 -0.026315
0.012670 0.019704 0.003451
-0.008654 -0.018820 0.023788
-0.007774 -0.019700 -0.008642
-0.007740 -0.019734 -0.008642
-0.002041 -0.019700 -0.014375
-0.002036 -0.019734 -0.014346
-0.002036 -0.019704 -0.014375
-0.008211 -0.019263 0.023788
-0.008654 -0.018820 -0.007762
-0.007740 -0.019734 0.023317
-0.008654 -0.018386 0.024222
-0.008625 -0.018386 0.024251
-0.008211 -0.018799 0.024251
-0.008654 0.018820 -0.007762
-0.007774 0.019700 -0.008642
-0.007740 0.019734 -0.008642
-0.002041 0.019700 -0.014375
-0.008654 0.018386 0.024222
-0.008654 0.018820 0.023788
-0.008625 0.018386 0.024251
-0.002036 0.019705 -0.014375
-0.002036 0.019734 -0.014346
-0.008211 0.019263 0.023788
-0.007740 0.019734 0.023317
-0.008211 0.018799 0.024251
0.009421 -0.019734 -0.014346
0.009421 -0.019704 -0.014375
0.012670 -0.019704 -0.011127
-0.007225 -0.019734 0.023317
0.012641 -0.019734 -0.011127
-0.007225 -0.018799 0.024251
0.009421 0.019705 -0.014375
0.009426 -0.019700 -0.014375
0.009426 0.019700 -0.014375
-0.007225 0.018799 0.024251
-0.007083 -0.018657 0.024251
0.009421 0.019734 -0.014346
-0.007225 0.019734 0.023317
0.012641 0.019734 -0.011127
0.012641 0.019734 0.003451
0.012670 -0.019700 -0.011131
0.012670 0.019700 -0.011131
0.012670 0.019704 -0.011127
-0.007740 -0.019734 0.000375
-0.008654 -0.018820 0.000375
-0.008654 -0.018349 -0.000095
-0.008625 -0.018349 -0.000125
-0.007270 -0.019734 -0.000095
-0.007270 -0.019704 -0.000125
-0.008211 -0.004076 0.038975
-0.007740 -0.019734 0.023317
-0.008654 -0.003662 0.038946
-0.008625 -0.003662 0.038975
-0.008654 0.018349 -0.000095
-0.008625 0.018349 -0.000125
-0.008654 0.003662 0.038946
-0.008654 0.018820 0.000375
-0.008625 0.003662 0.038975
-0.007740 0.019734 0.000375
-0.007269 0.019705 -0.000125
-0.007269 0.019734 -0.000095
-0.008211 0.004076 0.038975
0.006965 -0.019734 -0.000095
0.006965 -0.019704 -0.000125
0.011589 -0.019704 0.004500
-0.007225 -0.019734 0.023317
0.011560 -0.019734 0.004500
0.011560 -0.019734 0.004532
-0.007225 -0.004076 0.038975
0.006965 0.019705 -0.000125
0.006969 -0.019700 -0.000125
0.006969 0.019700 -0.000125
-0.007225 0.004076 0.038975
-0.007083 -0.003934 0.038975
-0.007083 0.003934 0.038975
0.006965 0.019734 -0.000095
0.011560 0.019734 0.004500
0.011560 0.019734 0.004532
0.011589 -0.019700 0.004495
0.011589 -0.019704 0.004532
0.011589 -0.003934 0.020303
0.011589 0.019700 0.004495
0.011589 0.003934 0.020303
0.011589 0.019704 0.004500
0.011589 0.019704 0.004532
3 0 1 2
3 0 2 3
3 0 3 4
3 4 3 5
3 3 6 5
3 1 0 7
3 2 1 7
3 7 0 8
3 0 4 8
3 2 7 9
3 7 8 9
3 9 8 10
3 8 4 11
3 10 8 11
3 10 11 12
3 3 2 13
3 2 9 13
3 6 3 14
3 3 13 14
3 13 9 15
3 9 10 15
3 13 15 16
3 14 13 16
3 15 17 18
3 16 15 18
3 17 15 19
3 15 10 19
3 10 12 19
3 14 16 20
3 16 18 20
3 6 14 21
3 14 20 21
3 20 17 22
3 6 21 22
3 21 20 22
3 18 17 23
3 17 20 23
3 20 18 23
3 19 12 24
3 17 19 24
3 11 4 25
3 4 5 25
3 5 6 26
3 25 5 26
3 27 25 26
3 12 11 28
3 11 25 28
3 25 27 29
3 28 25 29
3 28 29 30
3 29 27 30
3 28 30 31
3 24 12 31
3 12 28 31
3 27 26 32
3 26 6 32
3 32 6 33
3 17 24 34
3 24 31 34
3 31 30 35
3 34 31 35
3 34 35 36
3 33 6 37
3 22 17 37
3 6 22 37
3 37 17 38
3 34 36 38
3 17 34 38
3 37 38 39
3 33 37 39
3 38 36 40
3 39 38 40
3 32 33 41
3 27 32 41
3 27 41 42
3 35 30 42
3 30 27 42
3 35 42 43
3 42 41 43
3 36 35 43
3 33 39 44
3 41 33 44
3 43 41 44
3 43 44 45
3 40 36 45
3 36 43 45
3 39 40 46
3 44 39 46
3 45 44 46
3 46 40 47
3 40 45 47
3 45 46 47
3 48 49 50
3 48 50 51
3 48 51 52
3 52 51 53
3 49 48 54
3 50 49 54
3 48 52 55
3 54 48 55
3 50 54 56
3 54 55 56
3 56 55 57
3 55 52 58
3 57 55 58
3 57 58 59
3 60 57 59
3 51 50 61
3 50 56 61
3 51 61 62
3 53 51 62
3 56 57 63
3 61 56 63
3 62 61 64
3 61 63 64
3 64 63 65
3 63 60 65
3 57 60 66
3 60 63 66
3 63 57 66
3 62 64 67
3 64 65 67
3 53 62 68
3 62 67 68
3 67 69 70
3 69 68 70
3 68 67 70
3 67 65 71
3 65 60 71
3 69 67 71
3 69 71 72
3 71 60 72
3 52 53 73
3 58 52 73
3 73 53 74
3 53 68 74
3 75 73 74
3 58 73 76
3 59 58 76
3 73 75 77
3 76 73 77
3 76 77 78
3 77 75 78
3 60 59 79
3 59 76 79
3 79 76 80
3 76 78 80
3 68 69 81
3 74 68 81
3 75 74 82
3 74 81 82
3 82 81 83
3 81 69 83
3 72 60 84
3 60 79 84
3 79 80 85
3 84 79 85
3 69 72 86
3 72 84 86
3 84 85 86
3 83 69 87
3 69 86 87
3 86 85 88
3 87 86 88
3 75 82 89
3 82 83 89
3 80 78 90
3 78 75 90
3 75 89 90
3 85 80 91
3 90 89 91
3 80 90 91
3 91 89 92
3 83 87 92
3 89 83 92
3 91 92 93
3 88 85 93
3 85 91 93
3 93 92 94
3 87 88 94
3 92 87 94
3 88 93 95
3 93 94 95
3 94 88 95
3 96 97 98
3 98 97 99
3 98 99 100
3 100 99 101
3 96 98 102
3 97 96 103
3 99 97 103
3 98 100 104
3 102 98 104
3 96 102 105
3 103 96 105
3 105 102 106
3 102 104 107
3 106 102 107
3 103 105 108
3 99 103 108
3 99 108 109
3 108 110 109
3 101 99 111
3 99 109 111
3 109 110 111
3 108 105 112
3 105 106 112
3 110 108 113
3 108 112 113
3 106 107 114
3 112 106 114
3 113 112 114
3 111 110 115
3 101 111 115
3 115 110 116
3 113 114 117
3 110 113 117
3 116 110 118
3 110 117 118
3 117 114 119
3 118 117 119
3 114 107 119
3 104 100 120
3 100 101 120
3 101 115 121
3 120 101 121
3 122 120 121
3 104 120 123
3 107 104 123
3 123 120 124
3 120 122 124
3 124 122 78
3 123 124 78
3 119 107 125
3 107 123 125
3 123 78 125
3 115 116 126
3 121 115 126
3 122 121 127
3 121 126 127
3 127 126 128
3 118 119 129
3 119 125 129
3 125 78 130
3 129 125 130
3 129 130 85
3 130 93 85
3 93 129 85
3 116 118 131
3 126 116 131
3 128 126 131
3 118 129 132
3 129 93 132
3 131 118 132
3 128 131 133
3 131 132 133
3 132 93 134
3 133 132 134
3 122 127 135
3 127 128 135
3 93 122 135
3 122 93 90
3 78 122 90
3 130 78 90
3 93 130 91
3 130 90 91
3 90 93 91
3 93 135 136
3 128 133 136
3 135 128 136
3 136 133 137
3 93 136 137
3 133 134 137
3 93 137 95
3 137 134 95
3 134 93 95
3 138 139 140
3 138 140 141
3 138 141 142
3 142 141 143
3 140 139 96
3 139 138 96
3 144 96 102
3 96 138 102
3 102 138 145
3 144 102 145
3 138 142 145
3 140 96 146
3 96 144 146
3 146 144 147
3 141 140 148
3 140 146 148
3 143 141 149
3 141 148 149
3 146 147 150
3 148 146 150
3 149 148 151
3 148 150 151
3 151 150 113
3 118 151 113
3 113 150 152
3 147 144 152
3 150 147 152
3 151 118 153
3 149 151 153
3 149 153 154
3 143 149 154
3 154 153 155
3 153 118 155
3 118 113 117
3 113 152 117
3 152 144 156
3 118 117 156
3 117 152 156
3 142 143 157
3 145 142 157
3 157 143 158
3 159 157 158
3 143 154 158
3 144 145 160
3 145 157 160
3 157 159 161
3 160 157 161
3 160 161 162
3 161 159 162
3 160 162 163
3 156 144 163
3 144 160 163
3 158 154 164
3 154 155 164
3 159 158 165
3 158 164 165
3 165 164 166
3 156 163 167
3 118 156 167
3 163 162 168
3 167 163 168
3 167 168 169
3 155 118 170
3 166 164 170
3 164 155 170
3 118 167 132
3 167 169 132
3 170 118 132
3 166 170 171
3 170 132 171
3 132 169 172
3 171 132 172
3 159 165 173
3 165 166 173
3 159 173 174
3 162 159 174
3 168 162 174
3 174 173 175
3 169 168 175
3 168 174 175
3 166 171 176
3 173 166 176
3 175 173 176
3 172 169 177
3 169 175 177
3 175 176 177
3 177 176 178
3 171 172 178
3 176 171 178
3 177 178 179
3 178 172 179
3 172 177 179
